<svg xmlns="http://www.w3.org/2000/svg" version="1.1" xmlns:xlink="http://www.w3.org/1999/xlink" xmlns:svgjs="http://svgjs.com/svgjs" x="0" y="0" viewBox="0 0 64 64" style="enable-background:new 0 0 512 512" xml:space="preserve"><g><g fill="#eceaec" fill-rule="nonzero"><path d="M2 25c0 2.51 7.69 4.65 18.6 5.55l22.39.03C54.12 29.71 62 27.54 62 25V8H2zM2 39v17c0 3.31 13.43 6 30 6s30-2.69 30-6V39c0 2.4-7.02 4.46-17.17 5.42l-25.42.03C9.13 43.5 2 41.41 2 39z" fill="#eceaec" data-original="#eceaec"/><path d="M2 40c0 2.41 7.13 4.5 17.41 5.45l25.42-.03C54.98 44.46 62 42.4 62 40V24c0 2.54-7.88 4.71-19.01 5.58l-22.39-.03C9.69 28.65 2 26.51 2 24z" fill="#eceaec" data-original="#eceaec"/></g><path fill="#dbd8db" d="M62 56V8h-6v48c0 3.108-25.012 6-24 6 16.57 0 30-2.69 30-6z" data-original="#dbd8db"/><ellipse cx="32" cy="8" fill="#615260" rx="30" ry="6" data-original="#615260"/><path fill="#000" fill-rule="nonzero" d="M62 22.745c-1.086 1.363-2.985 2.397-5.348 3.229-6.317 2.226-15.966 2.779-24.628 2.564-11.651-.289-20.371-.859-25.677-2.84-1.97-.736-3.441-1.659-4.347-2.872v2.807c.98.754 2.196 1.396 3.647 1.938 5.442 2.033 14.379 2.67 26.328 2.967 8.913.221 18.84-.387 25.341-2.678 1.862-.655 3.446-1.459 4.684-2.412zM62 39c-1.086 1.363-2.985 2.397-5.348 3.229-6.317 2.226-15.966 2.779-24.628 2.564-11.651-.289-20.371-.859-25.677-2.84-1.97-.736-3.441-1.659-4.347-2.872v2.807c.98.754 2.196 1.396 3.647 1.938 5.442 2.033 14.379 2.67 26.328 2.967 8.913.221 18.84-.387 25.341-2.678 1.862-.655 3.446-1.459 4.684-2.412z" data-original="#615260"/><path fill="#000" d="M29 2.03c.989-.02 1.989-.03 3-.03 16.558 0 30 2.689 30 6 0 3.312-13.442 6-30 6-1.011 0-2.011-.01-3-.03 15.15-.301 27-2.861 27-5.97S44.15 2.331 29 2.03zM56 42.449v2.094c.453-.136.892-.278 1.317-.428 1.861-.656 3.445-1.46 4.683-2.413V39c-1.086 1.362-2.985 2.396-5.348 3.229-.213.075-.431.148-.652.22zM56 26.194v2.094c.453-.136.892-.278 1.317-.428 1.861-.656 3.445-1.46 4.683-2.413v-2.702c-1.086 1.362-2.985 2.396-5.348 3.229-.213.075-.431.148-.652.22z" data-original="#4e3d4d"/><path fill="#a91a2d" fill-rule="nonzero" d="m30.09 21.02-18 31.52c-.95 1.5.13 3.46 1.91 3.46h36c1.78 0 2.86-1.96 1.91-3.46l-18-31.52c-.89-1.4-2.93-1.4-3.82 0z" data-original="#ffe077"/><path fill="#8d1626" fill-rule="nonzero" d="M38.805 29.591C33.454 42.395 24.627 50.156 12.09 52.54c-.95 1.5.13 3.46 1.91 3.46h36c1.78 0 2.86-1.96 1.91-3.46z" data-original="#ffc244"/><path fill="#fff" fill-rule="nonzero" d="M32 44c-1.1 0-2-.9-2-2V28c0-1.1.9-2 2-2s2 .9 2 2v14c0 1.1-.9 2-2 2z" data-original="#fff"/><circle cx="32" cy="50" r="2" fill="#fff" data-original="#fff"/></g></svg>